<svg width="125" height="36" viewBox="0 0 125 36" fill="none" xmlns="http://www.w3.org/2000/svg">
	<path d="M0.94397 7.42395H3.17597V26H0.94397V7.42395Z" fill="currentColor" />
	<path
		d="M10.4457 26.24C9.30972 26.24 8.33372 26.016 7.51772 25.568C6.70172 25.104 6.06972 24.48 5.62172 23.696C5.18972 22.896 4.97372 21.984 4.97372 20.96C4.97372 19.984 5.22172 19.096 5.71772 18.296C6.21372 17.496 6.87772 16.856 7.70972 16.376C8.54172 15.896 9.46972 15.656 10.4937 15.656C11.8057 15.656 12.8937 16.04 13.7577 16.808C14.6217 17.576 15.2057 18.632 15.5097 19.976L7.32572 22.856L6.79772 21.536L13.5177 19.088L13.0377 19.4C12.8457 18.872 12.5257 18.416 12.0777 18.032C11.6297 17.632 11.0457 17.432 10.3257 17.432C9.71772 17.432 9.17372 17.584 8.69372 17.888C8.21372 18.176 7.83772 18.576 7.56572 19.088C7.29372 19.6 7.15772 20.184 7.15772 20.84C7.15772 21.528 7.30172 22.136 7.58972 22.664C7.87772 23.176 8.26972 23.584 8.76572 23.888C9.27772 24.176 9.85372 24.32 10.4937 24.32C10.9257 24.32 11.3417 24.24 11.7417 24.08C12.1577 23.92 12.5417 23.712 12.8937 23.456L13.9257 25.112C13.4297 25.448 12.8697 25.72 12.2457 25.928C11.6377 26.136 11.0377 26.24 10.4457 26.24Z"
		fill="currentColor"
	/>
	<path
		d="M23.56 9.43995L23.88 13.16L23.72 12.84C24.3333 11.5866 25.2 10.6 26.32 9.87995C27.4666 9.15995 28.7733 8.79995 30.24 8.79995C31.1733 8.79995 32 8.94662 32.72 9.23995C33.44 9.53328 34.0266 9.95995 34.48 10.52C34.96 11.0533 35.2666 11.72 35.4 12.52L35.2 12.64C35.84 11.44 36.72 10.5066 37.84 9.83995C38.9866 9.14662 40.1866 8.79995 41.44 8.79995C43.0666 8.79995 44.3466 9.26662 45.28 10.2C46.24 11.1066 46.7333 12.2933 46.76 13.76V26H43.04V15.08C43.0133 14.2266 42.8 13.52 42.4 12.96C42.0266 12.3733 41.36 12.0533 40.4 12C39.44 12 38.5733 12.2933 37.8 12.88C37.0533 13.4666 36.4666 14.2266 36.04 15.16C35.6133 16.0666 35.3866 17.0533 35.36 18.12V26H31.64V15.08C31.6133 14.2266 31.3866 13.52 30.96 12.96C30.56 12.3733 29.88 12.0533 28.92 12C27.9333 12 27.0666 12.2933 26.32 12.88C25.5733 13.4666 24.9866 14.2266 24.56 15.16C24.16 16.0933 23.96 17.0933 23.96 18.16V26H20.24V9.43995H23.56Z"
		fill="currentColor"
	/>
	<path
		d="M72.56 9.43995L72.88 13.48L72.72 12.84C73.2533 11.6133 74.12 10.64 75.32 9.91995C76.52 9.17328 77.9066 8.79995 79.48 8.79995C81.0533 8.79995 82.3333 9.26662 83.32 10.2C84.3333 11.1066 84.8533 12.2933 84.88 13.76V26H81.12V15.08C81.0933 14.1733 80.8266 13.44 80.32 12.88C79.84 12.2933 79.08 12 78.04 12C77.08 12 76.2133 12.2666 75.44 12.8C74.6666 13.3333 74.0533 14.0666 73.6 15C73.1733 15.9333 72.96 17.0133 72.96 18.24V26H69.24V9.43995H72.56Z"
		fill="currentColor"
	/>
	<path
		d="M97.0293 26.4C95.136 26.4 93.5093 26.0266 92.1493 25.28C90.7893 24.5066 89.736 23.4666 88.9893 22.16C88.2693 20.8266 87.9093 19.3066 87.9093 17.6C87.9093 15.9733 88.3227 14.4933 89.1493 13.16C89.976 11.8266 91.0827 10.76 92.4693 9.95995C93.856 9.15995 95.4027 8.75995 97.1093 8.75995C99.296 8.75995 101.109 9.39995 102.549 10.68C103.989 11.96 104.963 13.72 105.469 15.96L91.8293 20.76L90.9493 18.56L102.149 14.48L101.349 15C101.029 14.12 100.496 13.36 99.7493 12.72C99.0027 12.0533 98.0293 11.72 96.8293 11.72C95.816 11.72 94.9093 11.9733 94.1093 12.4799C93.3093 12.96 92.6827 13.6266 92.2293 14.48C91.776 15.3333 91.5493 16.3066 91.5493 17.4C91.5493 18.5466 91.7893 19.56 92.2693 20.44C92.7493 21.2933 93.4027 21.9733 94.2293 22.48C95.0827 22.96 96.0427 23.2 97.1093 23.2C97.8293 23.2 98.5227 23.0666 99.1893 22.8C99.8827 22.5333 100.523 22.1866 101.109 21.76L102.829 24.52C102.003 25.08 101.069 25.5333 100.029 25.88C99.016 26.2266 98.016 26.4 97.0293 26.4Z"
		fill="currentColor"
	/>
	<path
		d="M109.531 33.96L120.451 9.43995H123.891L113.211 33.96H109.531ZM113.611 26.12L105.651 9.43995H109.851L116.531 24.24L113.611 26.12Z"
		fill="currentColor"
	/>
	<path
		d="M64.1999 12.5999C64.1999 12.1575 63.8425 11.8002 63.4001 11.8001C63.321 11.8001 63.2399 11.8117 63.1599 11.8343L63.1589 11.8333C62.4088 12.0488 61.3313 12.254 60.1843 11.9602L60.1774 11.9583C58.1932 11.4438 55.8088 12.2067 54.0104 14.0081C52.2644 15.7571 51.4928 18.0438 51.9138 19.9905L51.9587 20.178L51.9597 20.1839C52.2532 21.3292 52.0506 22.4094 51.8337 23.1604L51.8083 23.2806C51.8027 23.3205 51.7995 23.3603 51.7995 23.3997C51.7995 23.8422 52.1578 24.1995 52.6003 24.1995V26.3997L52.446 26.3958C50.9112 26.3183 49.6817 25.0888 49.6042 23.554L49.6003 23.3997C49.6003 23.1831 49.6234 22.9709 49.6667 22.7659L49.7165 22.5638C49.889 21.9713 49.9826 21.3298 49.8288 20.7298C49.0987 17.9108 50.1664 14.8699 52.2487 12.6643L52.4538 12.4534C54.67 10.2335 57.824 9.07468 60.7302 9.82841C61.3301 9.98211 61.968 9.88859 62.5642 9.7161C62.8303 9.64118 63.1115 9.59989 63.4001 9.59989L63.5544 9.6038C65.14 9.6841 66.4001 10.9942 66.4001 12.5999L66.3923 12.8147C66.3772 13.0281 66.3401 13.2362 66.2839 13.4358L66.2233 13.6604C66.0919 14.1883 66.037 14.7448 66.1716 15.2698C66.9253 18.1797 65.7627 21.3262 63.5466 23.5462L63.3356 23.7513C61.1333 25.8369 58.0892 26.9049 55.2702 26.1712C54.6702 26.0174 54.0325 26.111 53.4362 26.2835L53.2341 26.3333C53.0291 26.3766 52.8168 26.3997 52.6003 26.3997V24.1995C52.6792 24.1995 52.7597 24.1888 52.8396 24.1663C53.5426 23.9642 54.5338 23.7719 55.6003 23.9905L55.8161 24.0403L55.8239 24.0423C57.809 24.559 60.1888 23.7947 61.989 21.9915C63.7915 20.1859 64.5561 17.8077 64.0417 15.8216L64.0397 15.8157C63.7465 14.6709 63.9489 13.5911 64.1657 12.8401L64.1911 12.719C64.1967 12.6791 64.1999 12.6393 64.1999 12.5999Z"
		fill="currentColor"
	/>
	<path
		d="M58.8512 14.4962C56.9012 15.0662 55.2325 16.735 54.6625 18.685C54.5237 19.1612 54.0212 19.435 53.545 19.2962C53.0687 19.1575 52.795 18.6587 52.9375 18.1825C53.68 15.6437 55.81 13.5137 58.3487 12.7712C58.825 12.6325 59.3275 12.9062 59.4662 13.3825C59.605 13.8587 59.3312 14.3612 58.855 14.5L58.8512 14.4962Z"
		fill="currentColor"
	/>
</svg>
