<svg width="103" height="58" viewBox="0 0 103 58" fill="none" xmlns="http://www.w3.org/2000/svg">
<path d="M103 0H0V58H103V0Z" fill="#1F2937"/>
<path d="M99.9101 33.35C100.687 33.3447 101.434 33.6483 101.988 34.194C102.541 34.7398 102.855 35.4829 102.86 36.26C102.865 37.0371 102.562 37.7844 102.016 38.3377C101.47 38.8909 100.727 39.2047 99.9501 39.21C99.5653 39.2126 99.1837 39.1394 98.8273 38.9946C98.4708 38.8498 98.1463 38.6362 97.8724 38.366C97.5984 38.0958 97.3804 37.7742 97.2307 37.4197C97.0811 37.0653 97.0027 36.6848 97.0001 36.3C96.9961 35.9157 97.068 35.5344 97.2118 35.1779C97.3555 34.8215 97.5682 34.497 97.8376 34.2229C98.107 33.9488 98.4279 33.7306 98.7818 33.5808C99.1357 33.431 99.5157 33.3526 99.9001 33.35H99.9101ZM49.2001 13C49.9771 12.9947 50.7245 13.2983 51.2777 13.844C51.831 14.3897 52.1448 15.1329 52.1501 15.91C52.1554 16.6871 51.8517 17.4344 51.306 17.9877C50.7603 18.5409 50.0171 18.8547 49.2401 18.86C48.463 18.8653 47.7156 18.5617 47.1624 18.0159C46.6091 17.4702 46.2954 16.7271 46.2901 15.95C46.2847 15.1729 46.5884 14.4255 47.1341 13.8723C47.6798 13.3191 48.423 13.0053 49.2001 13ZM64.9601 45.35C64.9601 45.35 67.8601 46.65 67.8601 48.25V48.3C67.8601 49.9 66.5601 51.2 64.9601 51.2H64.9201C63.3201 51.2 62.0201 48.3 62.0201 48.3L64.9601 45.35Z" fill="#895AF6"/>
<path d="M99.99 0.589986C100.194 0.520833 100.416 0.529574 100.613 0.614523C100.811 0.699473 100.97 0.854608 101.06 1.04999C102.05 3.18999 102.01 5.32999 100.96 6.92999C99.91 8.52999 97.96 9.40999 95.6 9.34999C93.84 9.30999 92.47 9.88999 91.75 10.98C91.03 12.08 91.04 13.57 91.78 15.16C91.828 15.2644 91.8549 15.3772 91.8592 15.492C91.8635 15.6068 91.8452 15.7213 91.8053 15.829C91.7653 15.9368 91.7046 16.0356 91.6265 16.1198C91.5484 16.204 91.4544 16.2721 91.35 16.32C91.2456 16.3679 91.1328 16.3948 91.018 16.3991C90.9032 16.4035 90.7887 16.3852 90.681 16.3452C90.5733 16.3053 90.4745 16.2445 90.3902 16.1664C90.306 16.0883 90.238 15.9944 90.19 15.89C89.2 13.76 89.24 11.62 90.29 10.02C91.34 8.41999 93.29 7.53999 95.65 7.59999C97.41 7.63999 98.78 7.05999 99.5 5.96999C100.22 4.86999 100.21 3.37999 99.47 1.78999C99.4171 1.67807 99.3887 1.55615 99.3867 1.43238C99.3846 1.3086 99.4091 1.18582 99.4583 1.07223C99.5075 0.958648 99.5804 0.856874 99.6721 0.773711C99.7638 0.690548 99.8722 0.627912 99.99 0.589986ZM9.44002 21.9C9.59002 21.6 9.98002 21.51 10.34 21.66C12.22 22.48 13.5 23.78 13.87 25.24C14.25 26.71 13.66 28.17 12.27 29.26C11.23 30.06 10.8 31.07 11.05 32.07C11.31 33.07 12.22 33.97 13.62 34.57C14.01 34.75 14.22 35.15 14.09 35.47C13.96 35.81 13.54 35.94 13.16 35.77C11.28 34.95 10 33.65 9.62002 32.19C9.25002 30.73 9.84002 29.26 11.22 28.18C12.27 27.37 12.7 26.36 12.45 25.36C12.19 24.36 11.28 23.47 9.87002 22.86C9.49002 22.69 9.28002 22.29 9.41002 21.96L9.44002 21.89V21.9ZM41 57.67C40.53 57.92 39.93 57.77 39.62 57.32C38.01 54.93 37.62 52.34 38.57 50.21C39.51 48.07 41.7 46.61 44.55 46.21C46.69 45.91 48.22 44.94 48.87 43.48C49.52 42.01 49.21 40.22 48 38.43C47.67 37.94 47.8 37.28 48.28 36.95C48.78 36.62 49.43 36.75 49.78 37.23C51.38 39.62 51.78 42.21 50.82 44.34C49.88 46.48 47.7 47.94 44.84 48.34C42.71 48.64 41.17 49.61 40.52 51.07C39.87 52.54 40.18 54.33 41.39 56.12C41.72 56.61 41.6 57.27 41.11 57.61C41.07 57.62 41.04 57.65 41.01 57.67H41Z" fill="#EF5DA8"/>
</svg>
